# xmcd
#
# Track frame offsets:
#	150
#	22436
#	53063
#	107627
#	134378
#	152666
#	176259
#
# Disc length: 2663 seconds
#
# Revision: 0
# Processed by: cddbd v1.5.2PL0 Copyright (c) Steve Scherf et al.
# Submitted via: audiograbber 1.83.01
#
DISCID=570a6507
DTITLE=Alabama and Friends - At The Ryman (Live) CD1
DYEAR=2014
DGENRE=Country
TTITLE0=If You're Gonna Play In Texas (You Gotta Have A Fiddle In The Band)
TTITLE1=Tennessee River (& Jason Aldean)
TTITLE2=Dixieland Delight   Will The Circle Be Unbroken
TTITLE3=Song Of The South
TTITLE4=One In The World
TTITLE5=Forever's As Far As I'll Go (& Trisha Yearwood)
TTITLE6=Dancin', Shaggin' On The Boulevard
EXTD=
EXTT0=
EXTT1=
EXTT2=
EXTT3=
EXTT4=
EXTT5=
EXTT6=
PLAYORDER=
